<svg xmlns="http://www.w3.org/2000/svg" viewBox="0 0 900 560" role="img" aria-labelledby="title desc"><title id="title">Corporate gift shipping visual</title><desc id="desc">Bulk gift cartons, warehouse shelves and international delivery route lines.</desc><defs><linearGradient id="bg" x1="0" x2="1" y1="0" y2="1"><stop stop-color="#eef3f4"/><stop offset="1" stop-color="#d6dedf"/></linearGradient><filter id="s" x="-20%" y="-20%" width="140%" height="140%"><feDropShadow dx="0" dy="12" stdDeviation="13" flood-color="#10252b" flood-opacity=".16"/></filter></defs><rect width="900" height="560" fill="url(#bg)"/><path d="M0 392h900v168H0z" fill="#e9d8c4"/><g opacity=".45" fill="none" stroke="#8aa0a4" stroke-width="4"><path d="M98 126c160 80 258-80 420 0s228-24 306-78"/><path d="M132 184c120-62 280 66 424 10s184 20 252 72"/><circle cx="216" cy="156" r="8" fill="#ff6b00" stroke="none"/><circle cx="546" cy="195" r="8" fill="#ff6b00" stroke="none"/><circle cx="786" cy="266" r="8" fill="#ff6b00" stroke="none"/></g><g filter="url(#s)"><rect x="126" y="238" width="176" height="136" rx="12" fill="#c7a47a"/><path d="M126 286h176M214 238v136" stroke="#8b6845" stroke-width="8"/><rect x="164" y="258" width="58" height="14" rx="7" fill="#fff4e4"/></g><g filter="url(#s)"><rect x="286" y="172" width="188" height="154" rx="14" fill="#b89063"/><path d="M286 226h188M380 172v154" stroke="#7c5d3d" stroke-width="8"/><rect x="322" y="196" width="72" height="16" rx="8" fill="#fff4e4"/></g><g filter="url(#s)"><rect x="448" y="286" width="204" height="120" rx="12" fill="#d0ad82"/><path d="M448 334h204M550 286v120" stroke="#8b6845" stroke-width="8"/><rect x="486" y="310" width="82" height="16" rx="8" fill="#fff4e4"/></g><g filter="url(#s)"><path d="M598 220h112l46 64h58v92H598z" fill="#1b1b1b"/><rect x="636" y="248" width="70" height="34" rx="6" fill="#394348"/><rect x="742" y="296" width="46" height="36" rx="4" fill="#ff6b00"/><circle cx="652" cy="384" r="28" fill="#2b2b2b"/><circle cx="764" cy="384" r="28" fill="#2b2b2b"/><circle cx="652" cy="384" r="10" fill="#b29253"/><circle cx="764" cy="384" r="10" fill="#b29253"/></g><g filter="url(#s)"><rect x="116" y="412" width="650" height="34" rx="17" fill="#fff"/><path d="M154 429h560" stroke="#cdbb9f" stroke-width="8" stroke-linecap="round"/></g><g fill="none" stroke="#61797d" stroke-width="7" stroke-linecap="round"><path d="M96 96h86M96 124h48M708 118h92M708 146h58"/></g></svg>