<svg xmlns="http://www.w3.org/2000/svg" viewBox="0 0 900 560" role="img" aria-labelledby="title desc"><title id="title">Corporate gift planning visual</title><desc id="desc">A professional planning table with branded gift samples, laptop, notebook and color swatches.</desc><defs><linearGradient id="bg" x1="0" x2="1" y1="0" y2="1"><stop stop-color="#f7efe4"/><stop offset="1" stop-color="#e7d7c4"/></linearGradient><linearGradient id="dark" x1="0" x2="1"><stop stop-color="#171717"/><stop offset="1" stop-color="#34302b"/></linearGradient><filter id="s" x="-20%" y="-20%" width="140%" height="140%"><feDropShadow dx="0" dy="10" stdDeviation="12" flood-color="#3b2d20" flood-opacity=".18"/></filter></defs><rect width="900" height="560" fill="url(#bg)"/><path d="M0 420c140-70 270-90 420-50s280 10 480-80v270H0z" fill="#fff" opacity=".42"/><g filter="url(#s)"><rect x="96" y="96" width="708" height="368" rx="28" fill="#fff8ef"/><rect x="96" y="330" width="708" height="134" rx="28" fill="#ead7c2"/></g><g filter="url(#s)"><rect x="456" y="118" width="236" height="154" rx="16" fill="url(#dark)"/><rect x="478" y="140" width="192" height="94" rx="7" fill="#24211e"/><rect x="532" y="252" width="84" height="14" rx="7" fill="#8b7a5c"/><rect x="430" y="276" width="288" height="20" rx="10" fill="#1c1a18"/></g><g filter="url(#s)"><rect x="178" y="214" width="168" height="152" rx="20" fill="#181818"/><path d="M178 250h168" stroke="#3b332a" stroke-width="4"/><rect x="222" y="294" width="78" height="28" rx="14" fill="#b29253" opacity=".92"/><rect x="216" y="386" width="92" height="18" rx="9" fill="#2e2a25"/></g><g filter="url(#s)"><rect x="302" y="120" width="112" height="170" rx="18" fill="#26231f"/><rect x="324" y="148" width="68" height="98" rx="10" fill="#151515"/><circle cx="358" cy="267" r="9" fill="#b29253"/></g><g filter="url(#s)"><rect x="560" y="334" width="150" height="88" rx="14" fill="#202020"/><path d="M586 356h96M586 378h74M586 400h54" stroke="#b29253" stroke-width="8" stroke-linecap="round"/></g><g fill="none" stroke="#6f604d" stroke-width="8" stroke-linecap="round"><path d="M168 142h82M168 166h126M168 190h72"/><path d="M730 154h44M730 182h30M730 210h54"/></g><g filter="url(#s)"><circle cx="392" cy="382" r="34" fill="#ff6b00"/><circle cx="460" cy="382" r="34" fill="#222"/><circle cx="528" cy="382" r="34" fill="#b29253"/></g></svg>